<svg width="38" height="34" viewBox="0 0 38 34" fill="none" xmlns="http://www.w3.org/2000/svg">
<path d="M25.4707 26.4117H36.7648" stroke="#214291" stroke-width="2" stroke-linecap="round" stroke-linejoin="round"/>
<path d="M32.0586 31.1176L36.7645 26.4118L32.059 21.7059" stroke="#214291" stroke-width="2" stroke-linecap="round" stroke-linejoin="round"/>
<path d="M36.7647 18.8824V3.82353C36.7647 2.26414 35.5006 1 33.9412 1H3.82353C2.26414 1 1 2.26414 1 3.82353V30.1765C1 31.7359 2.26414 33 3.82353 33H23.09" stroke="#214291" stroke-width="2" stroke-linecap="round" stroke-linejoin="round"/>
<path d="M23.0547 8.3833H20.3181C20.8128 8.9767 21.1259 9.70198 21.2573 10.5591H23.5881L23.0547 12.2954H21.2921C21.153 13.5994 20.608 14.5811 19.6572 15.2404C18.7063 15.8998 17.3844 16.2295 15.6915 16.2295L21.4081 22.5152V22.647H18.7759L12.6302 15.8668L12.6186 14.4932H15.5059C16.4722 14.4859 17.2569 14.2881 17.8598 13.8998C18.4628 13.5042 18.8455 12.9694 19.0078 12.2954H12.2939L12.8273 10.5591H18.9846C18.6135 9.16718 17.4772 8.44191 15.5755 8.3833H12.3171L12.8621 6.64703H23.5881L23.0547 8.3833Z" fill="#214291"/>
</svg>
