<svg width="38" height="38" viewBox="0 0 38 38" fill="none" xmlns="http://www.w3.org/2000/svg">
<path d="M9.81633 5.37349L18.1918 9.48193M9.81633 5.37349L18.7796 1L27.449 5.37349M9.81633 5.37349V15.3133M18.1918 9.48193L27.449 5.37349M18.1918 9.48193V19.2892M27.449 5.37349V8.28916V15.3133M9.81633 15.3133L18.1918 19.2892M9.81633 15.3133L1 19.6867M18.1918 19.2892L9.81633 23.7952M18.1918 19.2892V29.8916M18.1918 19.2892L27.8898 23.7952M18.1918 19.2892L22.3061 17.4337L27.449 15.3133M1 19.6867L9.81633 23.7952M1 19.6867V29.2289L9.81633 33.4699M9.81633 23.7952V33.4699M9.81633 33.4699L12.6082 32.1446L15.2531 31.2169L18.1918 29.8916M18.1918 29.8916L27.449 34M27.8898 23.7952L27.449 34M27.8898 23.7952L37 19.6867M27.449 34L37 29.2289V19.6867M37 19.6867L33.0327 17.5663L27.449 15.3133" stroke="#214291" stroke-width="1.5"/>
<circle cx="27.5" cy="28.5" r="9.5" fill="#214291"/>
<path d="M27.5 22C26.2144 22 24.9577 22.3812 23.8888 23.0954C22.8199 23.8097 21.9868 24.8248 21.4948 26.0126C21.0028 27.2003 20.8741 28.5072 21.1249 29.7681C21.3757 31.029 21.9948 32.1872 22.9038 33.0962C23.8128 34.0052 24.971 34.6243 26.2319 34.8751C27.4928 35.1259 28.7997 34.9972 29.9874 34.5052C31.1752 34.0132 32.1903 33.1801 32.9046 32.1112C33.6188 31.0423 34 29.7856 34 28.5C33.9982 26.7767 33.3128 25.1244 32.0942 23.9058C30.8756 22.6872 29.2233 22.0018 27.5 22ZM27.5 34C26.4122 34 25.3488 33.6774 24.4444 33.0731C23.5399 32.4687 22.8349 31.6098 22.4187 30.6048C22.0024 29.5998 21.8935 28.4939 22.1057 27.427C22.3179 26.3601 22.8417 25.3801 23.6109 24.6109C24.3801 23.8417 25.3601 23.3179 26.427 23.1057C27.4939 22.8935 28.5998 23.0024 29.6048 23.4187C30.6098 23.8349 31.4687 24.5399 32.0731 25.4444C32.6774 26.3488 33 27.4122 33 28.5C32.9983 29.9582 32.4184 31.3562 31.3873 32.3873C30.3562 33.4183 28.9582 33.9983 27.5 34ZM31.5 28.5C31.5 28.6326 31.4473 28.7598 31.3536 28.8536C31.2598 28.9473 31.1326 29 31 29H27.5C27.3674 29 27.2402 28.9473 27.1464 28.8536C27.0527 28.7598 27 28.6326 27 28.5V25C27 24.8674 27.0527 24.7402 27.1464 24.6464C27.2402 24.5527 27.3674 24.5 27.5 24.5C27.6326 24.5 27.7598 24.5527 27.8536 24.6464C27.9473 24.7402 28 24.8674 28 25V28H31C31.1326 28 31.2598 28.0527 31.3536 28.1464C31.4473 28.2402 31.5 28.3674 31.5 28.5Z" fill="white"/>
</svg>
