<svg width="33" height="31" viewBox="0 0 33 31" fill="none" xmlns="http://www.w3.org/2000/svg">
<path d="M31.961 11.0217L29.2934 1.68501C29.2369 1.48762 29.1177 1.31398 28.9537 1.19038C28.7898 1.06679 28.59 0.999954 28.3847 1H22.0117L22.7597 9.98236C22.7713 10.1267 22.817 10.2663 22.8931 10.3895C22.9692 10.5127 23.0736 10.616 23.1975 10.691C23.8117 11.0579 25.0116 11.7351 25.9486 12.0232C27.5485 12.5161 29.8855 12.3382 31.2177 12.1744C31.3472 12.1577 31.4715 12.1129 31.5819 12.0431C31.6923 11.9734 31.7862 11.8804 31.857 11.7706C31.9278 11.6609 31.9737 11.537 31.9917 11.4076C32.0097 11.2783 31.9992 11.1466 31.961 11.0217Z" stroke="#214291" stroke-width="1.5"/>
<path d="M19.6491 12.0232C20.5435 11.7477 21.6774 11.1193 22.3104 10.7445C22.4577 10.6564 22.5772 10.5286 22.6552 10.3757C22.7332 10.2228 22.7665 10.051 22.7513 9.88L22.0112 1H10.988L10.2478 9.88C10.2324 10.0512 10.2655 10.2234 10.3435 10.3766C10.4215 10.5298 10.5412 10.6579 10.6888 10.7461C11.3218 11.1193 12.4556 11.7477 13.3501 12.0232C15.7012 12.7476 17.298 12.7476 19.6491 12.0232Z" stroke="#214291" stroke-width="1.5"/>
<path d="M3.70595 1.68502L1.03833 11.0233C1.00067 11.148 0.990606 11.2793 1.00883 11.4083C1.02705 11.5373 1.07312 11.6607 1.14384 11.7701C1.21456 11.8795 1.30824 11.9722 1.41837 12.0417C1.5285 12.1113 1.65245 12.156 1.78161 12.1728C3.11227 12.3382 5.45077 12.5146 7.05071 12.0232C7.98769 11.7351 9.18922 11.0579 9.8018 10.6926C9.92593 10.6175 10.0304 10.5139 10.1065 10.3904C10.1826 10.2669 10.2283 10.127 10.2396 9.98236L10.9876 1H4.61458C4.40926 0.999954 4.20952 1.06679 4.04558 1.19038C3.88163 1.31398 3.76241 1.48762 3.70595 1.68502Z" stroke="#214291" stroke-width="1.5"/>
<path d="M2.32715 12.0233V26.196C2.32715 27.0313 2.65897 27.8324 3.24961 28.423C3.84026 29.0137 4.64135 29.3455 5.47664 29.3455H27.5231C28.3584 29.3455 29.1595 29.0137 29.7501 28.423C30.3408 27.8324 30.6726 27.0313 30.6726 26.196V12.0233" stroke="#214291" stroke-width="1.5"/>
<path d="M11 19.5L14.6739 24L22.5 16" stroke="#214291" stroke-width="1.5" stroke-linecap="round" stroke-linejoin="round"/>
</svg>
