<svg width="31" height="37" viewBox="0 0 31 37" fill="none" xmlns="http://www.w3.org/2000/svg">
<path d="M16.9711 16.8173H23.562M16.9711 26.1569H23.562M30 33.3077C30 34.0217 29.7222 34.7065 29.2278 35.2114C28.7334 35.7163 28.0628 36 27.3636 36H3.63636C2.93716 36 2.26659 35.7163 1.77217 35.2114C1.27776 34.7065 1 34.0217 1 33.3077V3.69231C1 2.97826 1.27776 2.29346 1.77217 1.78856C2.26659 1.28365 2.93716 1 3.63636 1H18.3631C19.0622 1.00015 19.7327 1.28391 20.227 1.78885L29.2275 10.9804C29.722 11.4852 29.9999 12.1699 30 12.8838V33.3077Z" stroke="#214291" stroke-width="1.8" stroke-linecap="round" stroke-linejoin="round"/>
<path d="M6 25.8615L8.62461 28L13 23.0109M6 16.8505L8.62461 18.9891L13 14" stroke="#214291" stroke-width="1.8" stroke-linecap="round" stroke-linejoin="round"/>
</svg>
