<svg width="38" height="35" viewBox="0 0 38 35" fill="none" xmlns="http://www.w3.org/2000/svg">
<path d="M9.81633 5.37349L18.1918 9.48193M9.81633 5.37349L18.7796 1L27.449 5.37349M9.81633 5.37349V15.3133M18.1918 9.48193L27.449 5.37349M18.1918 9.48193V19.2892M27.449 5.37349V8.28916V15.3133M9.81633 15.3133L18.1918 19.2892M9.81633 15.3133L1 19.6867M18.1918 19.2892L9.81633 23.7952M18.1918 19.2892V29.8916M18.1918 19.2892L27.8898 23.7952M18.1918 19.2892L22.3061 17.4337L27.449 15.3133M1 19.6867L9.81633 23.7952M1 19.6867V29.2289L9.81633 33.4699M9.81633 23.7952V33.4699M9.81633 33.4699L12.6082 32.1446L15.2531 31.2169L18.1918 29.8916M18.1918 29.8916L27.449 34M27.8898 23.7952L27.449 34M27.8898 23.7952L37 19.6867M27.449 34L37 29.2289V19.6867M37 19.6867L33.0327 17.5663L27.449 15.3133" stroke="#214291" stroke-width="1.5"/>
</svg>
