<svg width="38" height="34" viewBox="0 0 38 34" fill="none" xmlns="http://www.w3.org/2000/svg">
<path d="M25.4707 26.4117H36.7648" stroke="white" stroke-width="2" stroke-linecap="round" stroke-linejoin="round"/>
<path d="M32.0586 31.1176L36.7645 26.4118L32.059 21.7059" stroke="white" stroke-width="2" stroke-linecap="round" stroke-linejoin="round"/>
<path d="M36.7647 18.8824V3.82353C36.7647 2.26414 35.5006 1 33.9412 1H3.82353C2.26414 1 1 2.26414 1 3.82353V30.1765C1 31.7359 2.26414 33 3.82353 33H23.09" stroke="white" stroke-width="2" stroke-linecap="round" stroke-linejoin="round"/>
<path d="M17.3321 7.64703H18.4023L19.55 9.02367C19.9144 9.46067 20.1616 10.0109 20.2689 10.7107L20.379 11.4285L20.2978 12.1893C20.1849 13.2474 19.766 13.948 19.0873 14.4187C18.8343 14.5942 18.5355 14.7462 18.1863 14.8697C18.2593 14.8288 18.3309 14.7858 18.4012 14.7405L18.4013 14.7406L18.4084 14.7359C19.2145 14.207 19.7555 13.4615 19.98 12.5295L20.2137 11.5591H20.2861L20.2481 11.4165L20.2773 11.2954H20.2158L19.9509 10.3015C19.7057 9.38186 19.1865 8.63532 18.392 8.12826C18.0693 7.92227 17.714 7.76391 17.3321 7.64703ZM14.9517 16.9023L19.2668 21.647H19.2191L13.6412 15.4932H13.6701L14.9517 16.9023Z" fill="#214291" stroke="white" stroke-width="2"/>
</svg>
